<?xml version="1.0" encoding="UTF-8"?>
<svg enable-background="new 141 811 618 1719" version="1.1" viewBox="141 811 618 1719" xmlns="http://www.w3.org/2000/svg">
 <path d="m469.42 870.5h5.268c10.004 0.311 19.98 2.907 28.633 7.993 6.949 3.961 12.901 9.391 18.514 15.033 10.359 10.459 19.113 22.58 25.257 35.98 4.832 10.45 8.074 21.613 9.817 32.987 0.852 5.388 1.245 10.837 1.786 16.263 3.946 42.244 6.848 84.573 10.09 126.87 0.541 6.365 0.613 12.878 2.672 18.988 1.513 4.736 4.602 9.113 9.094 11.417 6.068 3.199 13.131 3.233 19.822 3.218 9.597 0.144 19.429 1.197 28.255 5.21 5.862 2.663 11.015 6.877 14.721 12.15 5.086 7.164 7.82 15.689 9.645 24.199 3.027 14.156 3.367 28.691 3.467 43.115 0.125 49.662-0.556 99.323-0.292 148.99 0.22 49.652 1.944 99.285 3.587 148.91 2.304 66.917 4.856 133.84 5.752 200.79v4.928c-0.302 9.578-1.94 19.218-5.713 28.073-3.304 7.811-8.385 14.99-15.181 20.143-6.139 4.727-13.572 7.638-21.21 8.797-7.183 1.135-14.511 0.752-21.67-0.335 3.367-9.295 7.341-18.39 10.071-27.91 2.998-10.45 6.293-20.827 8.649-31.444 1.863-8.17 2.854-16.517 3.118-24.884 0.426-10.909 0.709-22.12 4.712-32.431 0.991-2.715 2.361-5.258 3.692-7.816 2.28-4.928 2.294-10.55 1.801-15.856-0.891-9.142-3.597-17.964-6.025-26.78-9.434-33.47-20.617-66.438-29.256-100.13-2.533-10.205-5.21-20.411-6.599-30.851-3.06-22.451-2.107-45.17-3.314-67.745-0.503-8.572-0.043-17.154-0.062-25.731-2.878 0.086-5.761 0.053-8.639 0.177 0.034 25.123-1.197 50.265 0.172 75.374 2.797 47.143 7.964 94.108 10.746 141.25 1.504 25.047 2.083 50.141 2.514 75.225 0.565 38.618 0.512 77.242 1.169 115.86 0.254 11.177 0.388 22.36 0.896 33.528 1.331 16.019 8.108 30.808 12.552 46.084 5.119 16.738 10.89 33.269 16.129 49.968 7.816 24.567 13.476 49.748 18.888 74.933 3.108 14.664 6.001 29.371 8.84 44.087 1.078 5.991-1.384 11.781-2.112 17.657-0.479 3.036 0.014 6.092 0.292 9.128 1.336 13.356 3.266 26.646 5.129 39.935 1.547 10.723 3.084 21.493 2.955 32.354 0.062 27.527-7.758 54.652-20.387 78.975-4.363 8.587-9.669 16.637-14.582 24.903-16.886-7.409-33.58-15.325-50.993-21.45-18.605-6.604-38.321-10.608-58.133-9.841-7.054 44.193-3.846 89.827 8.256 132.86 2.423 8.697 5.186 17.303 8.247 25.794 2.869 8.074 6.47 15.947 8.045 24.424 1.245 6.312 1.269 13.126-1.461 19.079-3.084 6.867-9.008 11.901-15.095 16.067-5.972 3.922-12.193 7.892-19.328 9.228-7.998 1.676-16.8-0.072-23.131-5.359-6.748-5.493-10.239-14.147-10.814-22.676-3.075-52.243-4.995-104.55-7.586-156.82-0.455-6.547-1.398-13.041-2.136-19.549-2.227-0.057-4.459-0.11-6.681-0.187-0.637 7.457-1.887 14.86-2.213 22.35-0.321 4.808 0.201 9.621 0.364 14.429 2.931 56.807 6.293 113.59 9.439 170.39 0.302 6.475 0.125 12.964 0.019 19.448-9.578-0.292-19.161 0.134-28.739 0.23h-14.498c-16.12-0.014-32-3.309-47.564-7.212-1.125-0.316-3.132-0.833-2.629-2.39 1.24-2.308 3.721-3.539 5.852-4.87 3.439-2.107 7.361-3.319 10.632-5.704 4.358-2.859 8.759-5.661 13.337-8.146 5.44-2.706 10.531-6.781 12.844-12.562 1.758-4.167 2.275-8.726 2.418-13.203 1.001-22.346-1.499-44.71-5.708-66.634-4.176-21.766-9.99-43.173-15.603-64.599-14.424-54.537-25.813-109.8-38.369-164.78-0.723-3.103-1.762-6.403-0.603-9.535 4.511-14.65 3.367-30.477-0.91-45.031-4.023-14.137-10.239-27.503-15.104-41.343-4.612-13.457-8.055-27.283-11.446-41.085-4.554-18.998-8.362-38.159-11.992-57.348-3.223-17.556-6.719-35.07-9.568-52.688-4.08-25.535-7.064-51.233-11.34-76.739-0.546-6.25-5.617-11.187-11.067-13.668-6.384-2.035-12.605-4.765-18.031-8.74-6.786-4.87-12.26-11.417-16.321-18.687-5.263-9.382-8.409-19.755-10.972-30.147v-2.284c0.785-6.46 1.935-12.873 2.849-19.309 6.872-45.352 13.773-90.699 20.674-136.05 3.084-20.095 6.034-40.213 9.372-60.265 3.98-24.223 8.127-48.426 11.058-72.802 3.252-27.527 5.095-55.207 5.972-82.902 0.565-21.388 0.843-42.804-0.287-64.182-1.283-26.737-3.898-53.392-4.861-80.148-0.512-10.066 0.795-20.358 4.866-29.644 5.723-13.419 17.365-23.792 30.779-29.203 8.898-3.443 18.495-4.248 27.695-6.542 12.159-64.053 23.399-128.3 37.019-192.07 1.26-5.804 2.356-11.666 4.334-17.283 5.158-15.023 13.629-28.595 22.283-41.813 2.074-3.338 5.373-5.665 8.778-7.504 5.33-2.859 11.091-4.765 16.565-7.322 3.654-1.691 7.796-0.354 11.594-1.36 8.6-2.147 17.364-3.756 26.229-4.211m-123.46 474.48c0.014 25.631 0.014 51.261 0 76.892 2.816-4.918 4.698-10.32 6.163-15.78 3.324-13.175 4.08-27.043 1.949-40.477-1.269-7.297-3.323-14.806-8.112-20.635m-87.945 388.95c-0.953 5.287 1.13 10.66 4.382 14.779 1.796 2.189 3.702 4.55 6.484 5.488 5.349 1.877 11.144 1.317 16.642 2.462 1.173-6.848 2.117-13.74 3.29-20.588-4.377 3.999-8.668 8.093-13.131 11.996-3.707-8.62-7.672-17.125-11.417-25.726-2.931 3.304-5.561 7.131-6.25 11.589z"/>
</svg>
