<?xml version='1.0' encoding='utf-8'?>
<svg xmlns="http://www.w3.org/2000/svg" version="1.1" width="600px" height="976px" viewBox="0 0 600 976"> <g id="layer1"> <g style="fill:rgb(0,0,0); fill-opacity:1.0; stroke-linejoin: miter"> <path d="M230.97104,398.42746C231.02565,398.42746,231.10251,398.51016,231.22981,398.68152C231.9734,399.68097,233.19142,400.8869,234.74605,402.18884C235.77403,403.03625,235.8369,403.11023,235.84169,403.58258C235.84447,403.85596,235.93675,404.37714,236.05235,404.74896C236.34846,405.75293,235.98036,406.229,234.77614,406.39038C233.91945,406.4984,233.56227,406.82532,233.21214,407.8482C232.8495,408.87128,232.83965,409.11993,233.1617,410.23553C233.45778,411.23944,233.73424,411.53503,234.70692,411.83594C236.07878,412.2696,236.09245,412.3938,235.02803,415.31348C234.87059,415.72528,234.71693,416.50998,234.67274,417.0574C234.57436,418.38858,234.31749,420.03207,234.08897,420.79276C233.88445,421.46603,233.92549,421.8386,234.31975,422.7172C234.8283,423.83096,234.9222,424.51364,234.8444,426.65268L234.77776,428.66714L234.07994,429.73093C232.83125,431.6331,232.67577,432.2438,233.19673,433.35733C233.80669,434.6689,233.85918,434.94186,233.56703,435.554C233.29936,436.1285,232.5626,437.03098,232.36372,437.033L232.36334,437.033C232.28871,437.033,232.16232,436.7983,232.08485,436.5013C231.9308,436.01804,230.75969,433.3074,230.57011,432.99857C230.5196,432.92447,230.3809,432.72696,230.26723,432.5541C230.14134,432.39377,230.01323,432.02213,229.97295,431.7242C229.93263,431.42624,229.81712,431.06693,229.71626,430.93112C229.41368,430.5115,229.48024,429.71524,229.86983,428.9033C230.43025,427.77884,230.91478,426.5184,231.2151,425.4835C231.35912,424.97244,231.69743,424.01175,231.96437,423.36264C232.77742,421.40268,233.01735,420.54245,233.16435,419.09897C233.2889,417.89188,233.27397,417.6434,233.08006,416.9119C232.95113,416.45334,232.69533,415.7473,232.4923,415.33917C231.95946,414.27545,231.75539,413.76782,231.24397,412.3683C230.84743,411.26587,230.78181,410.91846,230.67805,409.2661C230.60545,408.23517,230.48317,407.20453,230.40614,406.96906C230.25212,406.48578,230.19154,404.1867,230.33842,403.96143C230.38728,403.87396,230.429,403.07788,230.41994,402.18292C230.4179,400.75336,230.61436,399.2845,230.89247,398.51093C230.91483,398.4557,230.93913,398.42746,230.97104,398.42746 Z M205.69594,492.28165C205.81903,492.28165,206.01738,492.66913,206.21852,493.33783C206.34673,493.72192,206.55226,494.37866,206.68071,494.7876C206.80919,495.19647,206.99,495.86603,207.06874,496.2754C207.14745,496.68488,207.47182,498.02417,207.79515,499.26404C208.10588,500.49158,208.44481,502.04205,208.55086,502.69983C208.65703,503.35767,208.77477,503.94067,208.8127,504.0025C208.85063,504.06427,208.94344,504.6352,209.03682,505.2682C209.11797,505.91382,209.2365,506.57147,209.30028,506.73242C209.36406,506.89343,209.48274,507.56348,209.55153,508.22162C209.63264,508.86725,209.8033,509.76062,209.94453,510.20667C210.26537,511.19794,210.2689,511.54596,209.97887,512.3694C209.54384,513.6045,209.55556,514.76044,210.05339,517.279C210.17186,517.9242,210.32463,518.2832,210.55074,518.517C210.92781,518.9235,211.28242,519.56635,211.28545,519.8646C211.2867,519.98895,211.16588,520.33826,211.01988,520.6505C210.46,521.8372,210.62227,523.12836,211.56023,524.909C212.02913,525.79926,212.05489,525.88605,212.02733,526.84357C212.0099,527.5773,211.90355,528.12524,211.62599,528.94855C211.09438,530.4706,210.94325,531.5039,210.79979,534.5261C210.6863,536.827,210.7035,537.29926,210.89,538.5281C211.02196,539.28503,211.12013,540.3905,211.12617,540.98706C211.13911,542.26746,211.47163,543.18396,212.02144,543.4643C212.22133,543.56177,212.45927,543.7334,212.57228,543.8441C212.7606,544.0287,212.73637,544.09106,212.2452,544.69275C211.9504,545.0438,211.55782,545.55743,211.38655,545.83264C210.90941,546.5958,210.45256,548.1295,210.46126,548.9872C210.46541,549.39734,210.3863,550.1813,210.27986,550.7169C209.86696,552.90906,209.7192,554.27795,209.70103,556.1677C209.66393,561.1033,209.31346,564.5503,208.82127,565.0525C208.7597,565.11536,208.70522,565.15045,208.6223,565.15045C208.48979,565.15045,208.28468,565.0607,207.86201,564.85095C207.3381,564.5956,206.99121,564.4739,206.75424,564.4739C206.61827,564.4739,206.5185,564.514,206.44221,564.5918C206.40073,564.63416,206.36124,564.65436,206.32187,564.65436C206.26785,564.65436,206.2141,564.6163,206.15584,564.545C206.04259,564.40936,206.05171,564.08606,206.17839,563.0903C206.28313,562.3806,206.40651,561.06165,206.47212,560.1784C206.53767,559.2827,206.67174,557.78955,206.7741,556.84375C206.96675,555.00195,206.88896,550.9999,206.58995,547.24866C206.50496,546.2177,206.38704,544.3915,206.32512,543.1863C206.2328,541.43445,206.16573,540.9503,206.00224,540.76544C205.80113,540.5437,205.53142,539.6887,205.18047,538.17566C205.08919,537.7539,205.01747,536.8098,205.0099,536.06396C205.02046,534.6467,204.77284,533.51807,204.17531,532.2063C203.85738,531.501,203.82408,530.6684,204.09013,529.93225C204.19884,529.62036,204.34187,529.0098,204.41188,528.5616C204.48195,528.1134,204.6479,527.31604,204.77925,526.7802C205.2086,524.98566,205.17677,521.8409,204.5988,511.40442C204.21709,504.3971,204.11848,502.02368,204.1157,499.28882L204.09795,496.30548L204.49931,495.43127C204.7306,494.9441,205.05779,494.10785,205.22627,493.5592C205.40718,493.01038,205.57582,492.47412,205.6121,492.37433C205.63315,492.3118,205.66162,492.28165,205.69594,492.28165 Z M199.90758,297.45123C198.18352,297.45123,197.33293,297.6527,196.36203,298.12958C194.5682,298.99298,193.70279,299.46173,193.29572,299.7766C192.88855,300.0791,191.31612,300.7041,190.9059,300.70825C190.79405,300.7094,190.19997,300.96405,189.60631,301.26843C189.00023,301.57288,188.31963,301.87817,188.09676,301.9674C187.60118,302.13397,186.21886,303.1176,185.96132,303.46832C185.86327,303.60608,185.45811,304.10748,185.04027,304.58398C184.35222,305.3866,184.25484,305.5865,183.79707,307.03314C183.33931,308.4798,183.29207,308.72894,183.30391,309.89734C183.31233,310.7301,183.24483,311.42694,183.1249,311.86334C182.88466,312.68616,182.87029,313.7306,183.07625,314.42462C183.166,314.69714,183.47023,315.27838,183.74794,315.69824C184.34102,316.56244,184.4825,317.0334,184.5066,318.18927C184.51128,318.64917,184.60448,319.2574,184.7068,319.54218C184.97536,320.2854,184.96382,320.37256,184.4203,320.71362C183.27171,321.45874,183.14519,322.46692,183.9475,324.36084C184.22777,325.02924,184.45757,325.62366,184.45818,325.68585C184.46046,325.9096,185.28523,327.56702,185.66377,328.12256C185.89067,328.4311,186.18236,328.99994,186.3477,329.37115C186.68903,330.19403,187.36952,330.69522,188.16911,330.69522C188.17557,330.69522,188.18204,330.6952,188.18852,330.69513C188.19418,330.69507,188.19984,330.69504,188.20552,330.69504C188.48566,330.69504,188.76253,330.76538,188.83638,330.83777C189.11336,331.18304,189.49043,334.05087,189.61821,336.8466L189.72795,339.09555L189.02489,339.63724C187.97635,340.44345,187.25555,341.69388,187.06992,343.00107C186.95367,343.79788,186.19882,345.37186,185.86447,345.49948C185.71597,345.5632,185.25781,345.74185,184.84912,345.89517C184.44043,346.04843,183.4006,346.48166,182.53427,346.8633C181.66797,347.2451,180.88788,347.5513,180.80084,347.55222C180.71384,347.55307,179.88455,347.90952,178.96887,348.32907C178.05331,348.76096,176.82816,349.3079,176.24634,349.54996C175.67696,349.79196,174.72423,350.23666,174.14305,350.54086C173.04248,351.11145,170.69208,352.2541,170.59262,352.25507C170.56775,352.25537,169.6771,352.68695,168.62567,353.20734C167.57428,353.7276,166.67117,354.1595,166.64633,354.15973C166.60904,354.1601,166.34964,354.32434,166.06564,354.51367C165.78174,354.71545,165.23846,355.08142,164.85553,355.3214C164.13937,355.8011,163.02057,357.0307,162.53177,357.8686C161.87222,359.0313,160.85947,362.13696,159.87894,365.9757C159.75937,366.44934,159.60385,367.04767,159.53162,367.28455C159.38763,367.79572,158.41693,372.604,158.0993,374.38483C157.98157,375.03247,157.8035,375.86725,157.6954,376.2412C157.58734,376.6153,157.50546,377.12567,157.50797,377.37433C157.51038,377.61047,157.42853,378.12103,157.33286,378.495C157.23718,378.8689,156.97708,380.1892,156.7409,381.4223C156.51721,382.6552,156.22162,384.16238,156.09122,384.7853C155.9606,385.39572,155.7717,386.37967,155.66574,386.96506C155.5722,387.55026,155.40546,388.27298,155.3216,388.58456C155.22531,388.8964,155.10666,389.457,155.04831,389.83047C154.67319,392.07193,154.53207,392.86887,154.31787,393.8159C154.18707,394.40152,154.05734,395.09897,154.02286,395.37283C153.98834,395.64664,153.88263,396.25687,153.78806,396.74265C152.76038,402.0612,152.74905,402.1732,152.75552,405.26852C152.75922,408.09042,152.64597,409.18546,152.32693,409.5989C152.25336,409.69907,151.93219,409.90134,151.59836,410.0787C150.95526,410.40842,150.75916,410.68393,150.76468,411.2308C150.76947,411.70316,151.15967,412.184,151.78448,412.50095C152.44666,412.82986,152.63715,413.22574,152.36908,413.76297C152.25937,413.97543,152.05142,414.31314,151.90402,414.48868C151.75677,414.6766,151.42932,415.48807,151.16403,416.29874C150.54922,418.19455,150.47342,419.30173,150.5452,425.16843C150.60098,429.45676,150.60211,429.56857,150.34439,429.89444C150.20941,430.0698,149.9769,430.43265,149.83047,430.70767C149.52551,431.28256,149.53998,431.48135,150.1138,434.13583C150.33578,435.19022,150.5745,436.66714,150.64432,437.42477C150.71402,438.16995,150.82126,438.9396,150.89758,439.11282C150.97394,439.2861,151.09235,439.93137,151.1731,440.53964C151.25394,441.16043,151.41129,441.96683,151.53937,442.33847C151.8475,443.30502,151.85403,445.1821,151.56442,446.04282C151.37143,446.62894,151.34985,446.95242,151.4429,448.77884C151.49164,449.90964,151.49344,451.3143,151.44965,451.89902C151.32751,453.34232,151.49338,454.994,151.88977,456.0839C152.17102,456.85184,152.21045,457.06277,152.10373,457.57352C151.9389,458.4827,151.82248,464.1774,151.9281,466.0162C152.03146,467.63113,152.03146,467.63113,152.53687,468.4341C153.34506,469.68146,153.66272,470.362,154.11163,471.7248C154.71509,473.62085,155.72461,475.10236,156.95105,475.9104C157.3641,476.19214,158.31259,476.55548,159.75925,477.01324C160.95625,477.37402,162.44072,477.88116,163.0522,478.1112C163.70824,478.36197,164.17381,478.4964,164.52649,478.4964C165.0594,478.4964,165.33453,478.18948,165.61943,477.51337C165.80159,477.08887,165.96169,476.93805,166.39473,476.7348C167.27348,476.35297,167.44145,475.75458,166.88649,474.96454C166.70998,474.7177,166.57045,474.44568,166.56984,474.38348C166.56784,474.1854,165.37817,473.64157,164.95117,473.64157C164.94951,473.64157,164.94786,473.64157,164.94621,473.6416C164.93947,473.64166,164.93274,473.6417,164.92606,473.6417C164.40327,473.6417,164.07394,473.435,164.07071,473.11584C164.06921,472.96667,164.01752,472.7683,163.95435,472.66956C163.76498,472.38556,163.93686,472.17242,164.46988,472.01788C165.11447,471.83734,165.52188,471.5597,165.72916,471.15985C166.08246,470.44763,165.87186,466.8323,165.39835,465.49454C165.2193,464.99905,165.16391,464.44022,165.1463,462.69998C165.12543,460.63663,165.11151,460.48758,164.79297,459.72012C164.60199,459.2745,164.35956,458.65536,164.2445,458.3458C163.96335,457.5903,163.11649,456.20657,162.50049,455.52908C161.98492,454.94998,161.94601,454.7888,162.1532,454.37643C162.32379,454.03915,162.82278,449.29776,162.82266,448.0546C162.81436,447.23422,162.87415,446.99747,163.25128,446.18558C163.6164,445.41116,163.71194,445.0248,163.7886,444.00467C163.85626,443.32028,163.95963,442.47385,164.03079,442.13754C164.10187,441.78867,164.19135,440.80576,164.21997,439.94772L164.27869,438.38077L165.04092,437.5402C165.96313,436.53635,166.25342,435.73782,166.10547,434.63284C165.95706,433.4783,165.99121,431.9365,166.19418,431.11392C166.30179,430.69016,166.68619,429.36862,167.04721,428.18393C167.41992,426.9371,167.74191,425.59122,167.81052,424.9938C167.8793,424.4213,168.01788,423.37558,168.12262,422.66605C168.29797,421.57028,168.29547,421.3217,168.15405,420.8632C168.05148,420.55344,167.94171,419.5352,167.90503,418.36703L167.83536,416.39108L168.4144,415.87552C169.57251,414.84445,169.97778,414.35556,170.3551,413.55618C170.99954,412.13248,170.8157,411.16464,169.5148,409.13907C168.84558,408.1141,168.79208,407.74167,169.11545,406.53256C169.47504,405.2112,169.53604,405.09872,170.17737,404.59494C170.48575,404.35568,171.04056,403.90256,171.42291,403.60037C171.79608,403.29187,171.9903,403.1661,172.10272,403.1661C172.14629,403.1661,172.17757,403.185,172.20221,403.21945C172.26538,403.31833,172.3165,403.45456,172.31735,403.5416C172.31812,403.61612,172.4585,403.97525,172.63626,404.34634C172.81393,404.70505,172.95544,405.17606,172.95758,405.38736C172.962,405.82236,173.33139,406.70126,174.43556,408.94012L174.90529,409.90503L174.7068,411.175C174.58955,411.8723,174.45042,412.8683,174.39345,413.37854C174.1754,415.17084,173.80167,417.54898,173.64636,418.17215C173.43127,419.03207,173.34433,421.4943,173.50253,422.3878C173.56873,422.78488,173.73584,423.33023,173.88763,423.5898C174.25516,424.2822,175.85202,426.06863,176.31427,426.30008C176.92664,426.61716,177.116,426.9011,177.21066,427.65848C177.30472,428.35373,177.30472,428.35373,176.73975,429.03067C176.43274,429.4067,176.15125,429.84464,176.11572,430.019C176.0802,430.19345,175.96042,430.64218,175.84003,431.02878C175.61139,431.777,175.65625,432.52243,176.00165,433.48856C176.16806,433.95926,176.20395,436.28348,176.04138,437.4164C175.9725,437.97653,175.92337,438.0392,175.62546,438.0795C175.07916,438.1472,174.82278,438.6097,174.73413,439.67978C174.6896,440.18985,174.60873,440.79977,174.5487,441.0118C174.47641,441.23624,174.33353,441.85928,174.20236,442.4075C174.08356,442.95572,173.81943,443.87827,173.61404,444.4647C172.97324,446.2488,172.51608,447.75766,172.51938,448.08084C172.52112,448.25485,172.41428,448.75314,172.28204,449.20206C170.81503,454.1024,170.69675,454.7003,170.72302,457.29813C170.74603,459.57285,170.98212,460.78873,171.82565,463.06754L172.23474,464.18222L172.22885,467.29007C172.23505,469.12985,172.28857,470.7329,172.36795,471.20453C172.45947,471.65112,172.58797,473.29083,172.66606,474.86877C172.83199,477.75116,172.85863,477.925,173.64879,481.07452C173.76482,481.48352,173.89525,482.09137,173.96095,482.43872C174.0265,482.77374,174.27205,483.70367,174.49135,484.48462C174.87744,485.7859,175.05899,486.5299,175.80084,489.81677C175.93103,490.39966,176.09906,491.03204,176.17548,491.21765C176.25195,491.40338,176.37064,492.07343,176.45163,492.70667C176.65515,494.3952,176.94574,496.08295,177.4544,498.43976C177.71472,499.5932,178.004,501.15662,178.11115,501.91388C178.31128,503.26685,178.49536,504.25952,178.8742,506.07062C179.40933,508.58875,179.607,509.6931,179.61087,510.07843C179.61328,510.31464,179.73068,510.86047,179.85938,511.29425C180.00052,511.7279,180.20984,512.7576,180.32999,513.57684C180.9595,518.0457,182.03787,522.64685,183.3319,526.4502C183.89568,528.1103,183.92168,528.2219,183.8835,529.36597C183.83458,530.67175,184.13686,534.74615,184.34679,535.838C184.41273,536.2103,184.4832,537.03,184.48961,537.66394C184.49641,538.3352,184.64568,539.5768,184.83028,540.61914C185.02763,541.6986,185.16417,542.90314,185.17159,543.6365C185.17839,544.30774,185.30257,545.5247,185.44759,546.34375C185.5926,547.1627,185.8076,548.7517,185.9185,549.88184C186.02937,551.012,186.17766,552.1542,186.25502,552.4269C186.31993,552.6997,186.44185,553.693,186.51357,554.6371C186.65443,556.2766,186.86766,557.6915,187.52641,561.36456C187.69768,562.32007,187.88353,563.4867,187.93816,563.97095C187.99266,564.4428,188.1108,565.0632,188.20045,565.32336C188.30254,565.5834,188.4467,566.3153,188.51512,566.93616C188.596,567.557,188.74101,568.376,188.84438,568.76025C188.94774,569.1446,189.04015,569.6782,189.04277,569.9392C189.04555,570.2127,189.16295,570.75854,189.2914,571.1674C189.41985,571.57635,189.57631,572.2958,189.63094,572.7801C189.68541,573.2519,189.86827,574.12024,190.04817,574.7027C190.35692,575.7313,190.5197,577.07227,190.9023,581.7178C190.9734,582.5996,191.12029,583.6051,191.2357,583.95197C191.33858,584.2866,191.42958,584.6835,191.43095,584.8202C191.43236,584.9569,191.75041,585.6747,192.1306,586.3919C192.54881,587.1832,192.94374,588.124,193.0992,588.744C193.24165,589.31445,193.52342,590.1321,193.72685,590.5775C193.91783,591.02313,194.15965,591.5801,194.24904,591.8154C194.33846,592.05066,194.65349,592.47015,194.95457,592.7406C195.46907,593.2202,195.48204,593.2698,195.37434,593.6811C195.30214,593.918,195.12386,594.7279,194.96992,595.48773C194.8037,596.2602,194.4911,597.30756,194.24791,597.84454C194.00468,598.3816,193.75148,599.15485,193.69359,599.5781C193.45949,601.0101,193.37572,601.3341,193.07124,601.95874C192.90062,602.29614,192.60945,603.0077,192.42818,603.51917C192.23445,604.0309,192.01637,604.5924,191.91869,604.76746C191.83345,604.9424,191.76097,605.1544,191.76186,605.24146C191.76274,605.3285,191.67677,605.42883,191.57768,605.46704C191.25575,605.59467,191.04173,606.554,190.98412,608.23285C190.95601,609.1406,190.8655,610.0242,190.79253,610.1865C190.71959,610.3489,190.6974,610.6101,190.73631,610.77136C191.05952,611.9988,193.5511,613.7512,196.08253,614.5337C197.06122,614.8331,198.41985,614.9807,199.86554,614.9807C201.44083,614.9807,203.11949,614.8055,204.52266,614.4607C206.12221,614.0591,206.82747,613.72876,206.94765,613.3174C206.99602,613.1801,207.06944,613.0675,207.13158,613.06683C207.19374,613.0662,207.41484,612.803,207.63527,612.4774C207.9905,611.9518,208.00227,611.8895,207.82689,611.7545C207.52644,611.54626,207.56108,611.2848,207.91814,610.9456C208.07805,610.78235,208.3106,610.4195,208.41948,610.12006C208.6009,609.621,208.60042,609.5713,208.38542,609.2129C208.17036,608.84216,208.16997,608.8048,208.5038,607.3967C208.83754,605.9762,208.83714,605.93884,208.63173,605.29456C208.31105,604.31573,208.33412,604.1415,208.84212,603.97473C209.52348,603.744,209.69377,603.3694,209.58424,602.376C209.3911,600.4884,209.2571,599.53253,209.11714,599.2107C208.96407,598.8269,208.91722,597.88257,209.03532,597.2723C209.08356,597.02454,209.1589,596.9026,209.31908,596.9026C209.47296,596.9026,209.70515,597.0152,210.06682,597.23694C210.37968,597.4451,210.96706,597.75,211.37914,597.9323C211.85292,598.14026,212.08449,598.213,212.48407,598.213C212.62157,598.213,212.77895,598.2044,212.97295,598.1897C213.68083,598.12036,213.92863,598.0433,214.37288,597.7156C214.66905,597.5012,215.00291,597.3238,215.11479,597.32263C215.22664,597.32153,215.58488,597.0941,215.91756,596.8048C217.34724,595.5846,219.81386,591.1838,221.00996,587.7655C221.36012,586.7426,221.64919,585.81976,221.64806,585.7079C221.64693,585.59607,221.71922,585.3715,221.80446,585.19666C222.35298,584.12195,222.9983,581.5546,223.26247,579.40137C223.35414,578.642,223.5056,577.6336,223.61266,577.1601C223.87318,575.877,223.82744,573.8139,223.5099,573.1458C223.17955,572.4406,223.1527,572.24194,222.96043,569.21063C222.84209,567.3471,222.73412,566.5029,222.59462,566.2309C222.3283,565.71136,222.42519,563.0004,222.74174,562.3384C222.94884,561.9261,223.92253,561.09576,225.55196,559.9604C227.00865,558.9512,227.709,558.13605,227.70235,557.47723C227.70045,557.29083,227.62148,556.8565,227.51851,556.5095C227.24779,555.555,226.96877,552.5495,227.12733,552.2495C227.32243,551.8746,227.84764,549.7187,227.92693,548.95953C227.99477,548.28754,228.59486,546.16815,228.83879,545.70575C228.99724,545.3934,230.39244,540.7673,230.3903,540.55597C230.38866,540.39435,230.73671,539.16016,231.06175,538.1126C232.08626,534.93225,232.6866,531.60706,232.89824,527.95013C233.01408,525.8853,233.01308,525.7859,232.744,524.993C232.39812,523.9772,232.39748,523.915,232.72337,522.9545L232.98903,522.1811L232.70702,521.3386C232.55309,520.8678,232.424,520.39667,232.42274,520.2724C232.42146,520.1481,232.78975,519.6844,233.24529,519.2447L234.0576,518.44086L233.96931,517.0868C233.8666,515.5339,233.3726,513.4007,232.86433,512.3119L232.52101,511.557L232.49635,507.89008C232.47514,504.55865,232.49556,504.12335,232.73387,503.10162C233.35329,500.43506,233.38127,499.5149,233.22426,487.6819C233.12193,480.0252,233.12038,476.18402,233.21904,474.87762C233.34932,473.01166,233.33665,468.0765,233.21022,467.8665C233.07149,467.66904,233.07985,464.80972,233.21342,464.4976C233.40776,464.04807,233.68501,461.95682,233.81514,460.0784C233.92314,458.4612,233.92314,458.4612,234.52147,457.39853C234.83879,456.811,235.38792,455.79855,235.717,455.14877C236.04607,454.499,236.54622,453.5616,236.82738,453.0864C237.09593,452.5988,237.57191,451.72385,237.87663,451.12405C238.80269,449.27487,239.55049,448.23544,240.14447,447.9684C240.42911,447.84122,240.83652,447.56363,241.0456,447.3378C241.50085,446.8732,242.36575,445.12405,243.26245,442.8276C243.61386,441.929,244.1478,440.64316,244.43924,439.9565C244.74307,439.26968,245.08203,438.37125,245.18973,437.95987C245.3099,437.5485,245.52798,436.9868,245.67438,436.71188C245.83319,436.43674,246.28342,435.47507,246.6723,434.58847C247.06097,433.68948,247.81729,432.26462,248.35556,431.4014C249.61548,429.37485,250.09091,428.45016,250.51291,427.15305C251.00754,425.6686,250.97583,424.98526,250.39331,423.93448L249.93741,423.10617L250.30688,421.53604C250.79529,419.43027,251.06207,417.53806,251.07095,415.95923C251.07172,414.80304,251.11874,414.54156,251.4703,413.6554L251.87045,412.6568L251.84656,410.2951C251.83673,408.09485,251.84714,407.89587,252.10287,407.37115C252.61447,406.33423,252.64789,405.94843,252.50067,403.68744C252.35464,401.5384,252.18423,400.66986,251.64886,399.3576C251.1643,398.15662,250.85547,397.1156,250.42712,395.32983C250.2189,394.412,249.92224,393.3459,249.78146,392.94952C249.64072,392.5531,249.52472,392.14404,249.52371,392.04462C249.5227,391.9452,249.38104,391.46185,249.21445,390.96625C249.04782,390.4707,248.75262,389.5537,248.56,388.94647C248.36728,388.3269,248.08514,387.47205,247.919,387.02618C247.53568,385.99823,247.04526,384.21313,246.68048,382.56342C246.53644,381.84393,246.28983,380.81458,246.14758,380.26904C246.00528,379.7235,245.82336,378.94214,245.75702,378.5326C245.69073,378.12305,245.5206,377.27948,245.39014,376.6717C245.25952,376.0514,245.02261,374.74854,244.8634,373.7556C244.46448,371.18634,244.38647,370.8515,243.8753,369.4768C243.45319,368.3001,242.38867,365.06628,242.16931,364.27295C242.01447,363.7151,240.76614,360.7442,240.48776,360.26215C240.34882,360.03986,240.09354,359.38354,239.92616,358.81348C239.5146,357.4502,239.33742,357.1411,238.648,356.5763C238.33461,356.31836,237.78288,355.85162,237.4193,355.5445C236.06474,354.36475,235.20155,353.82654,233.0284,352.8291C231.79195,352.25745,230.61787,351.70993,230.40541,351.60025C230.20625,351.49084,229.97037,351.40646,229.89473,351.40646L229.89294,351.40646C229.72824,351.40646,228.5448,350.90976,227.72151,350.49612C227.40907,350.33762,226.24873,349.91428,225.13853,349.54013C224.02852,349.17844,222.98033,348.79123,222.8303,348.70572C222.66771,348.60788,222.31816,348.4623,222.04384,348.37802C221.39537,348.1733,215.82903,346.00443,215.3543,345.77304C214.89195,345.54153,214.05537,343.94632,213.64317,342.5209C213.17921,340.89706,212.4482,339.90994,211.1095,339.0657C210.54654,338.71097,210.52103,338.64902,210.35837,337.32047C210.27563,336.51334,210.27563,336.51334,211.0188,335.014C211.77386,333.46494,212.2558,331.95587,212.48807,330.33752C212.60437,329.5407,212.67706,329.35345,213.095,328.88928C213.52542,328.425,213.58575,328.25024,213.67758,327.4911C213.7348,327.00568,213.84161,326.50732,213.91473,326.35742C213.98788,326.2199,214.04553,325.77185,214.0415,325.37408C214.03635,324.86444,214.13162,324.4533,214.3505,323.9662C214.58139,323.4417,214.68823,322.94348,214.76416,321.8487C214.81836,321.065,214.8981,320.3432,214.92194,320.24347C214.95837,320.15607,214.86691,319.72192,214.72571,319.27582C214.41742,318.29688,214.4993,317.78632,215.07745,317.18384C216.04922,316.16705,215.83136,314.2921,214.15112,309.175C214.02264,308.766,213.94229,308.19513,213.95023,307.7475C214.00665,305.95673,212.91428,303.65558,211.25717,302.05627C208.1063,299.03015,207.73065,298.7603,205.74686,298.047C204.96072,297.7566,204.42526,297.6626,203.19376,297.588C201.8098,297.49973,200.75354,297.45123,199.90758,297.45123 Z"/> </g> </g> </svg>